<svg width="181" height="74" viewBox="0 0 181 74" fill="none" xmlns="http://www.w3.org/2000/svg">
<g clip-path="url(#clip0_96_7564)">
<path d="M60.9948 0.266047C58.7142 0.429764 55.2118 1.00277 54.6417 1.30974C54.4584 1.41207 54.153 1.49392 53.9697 1.49392C53.7865 1.49392 52.748 1.92368 51.6688 2.45576C49.9583 3.29481 49.4289 3.7041 47.7592 5.3822C44.603 8.55421 43.1165 11.7467 42.5056 16.6991C42.2409 18.9502 42.2206 19.6256 42.4446 21.5083C42.8925 25.2329 43.7478 27.8319 45.4175 30.4513C47.3316 33.4596 50.7525 36.161 54.0715 37.307C58.1033 38.6781 59.0604 38.7804 70.1376 38.8827C75.6558 38.9237 80.4003 38.9237 80.665 38.8623C80.9297 38.7804 81.1537 38.5962 81.1537 38.4325C81.1537 37.9823 80.4817 37.7163 79.2803 37.7163C77.8753 37.6958 76.7146 37.0409 76.1649 35.9563C75.778 35.1787 75.7576 34.7489 75.7576 19.4004C75.7576 4.01107 75.7576 3.62224 76.1649 2.94691C76.7757 1.88275 77.4273 1.53485 79.2803 1.20742C81.1333 0.90045 81.3573 0.798127 80.9704 0.4093C80.6853 0.122795 64.7415 7.59947e-06 60.9948 0.266047ZM67.4293 2.59901C68.4475 2.74226 69.4656 2.98784 69.7099 3.11063L70.1579 3.3562L70.1172 19.5642L70.0561 35.7721L69.4452 36.0586C68.9158 36.3247 68.0606 36.4475 64.6804 36.8363C62.5423 37.0614 58.7549 36.0996 56.4947 34.7489C54.9268 33.8075 52.7683 31.802 51.852 30.4513C51.2004 29.469 50.1619 27.3202 49.7343 26.0514C49.1642 24.3324 48.8791 22.0608 48.8791 19.2981C48.8995 15.8191 49.3678 13.568 50.6914 10.4983C51.4651 8.71793 54.1734 5.68917 56.006 4.52268C58.9993 2.63994 63.1329 1.94414 67.4293 2.59901ZM84.6764 0.266047C83.7804 0.63441 84.2488 1.12556 85.7352 1.3916C87.4457 1.71903 88.1176 2.59901 89.5023 6.40543C89.9706 7.6947 90.4593 9.08629 90.6222 9.47512C91.0498 10.6621 91.4571 11.7876 91.7218 12.5448C91.8643 12.9336 92.353 14.2638 92.801 15.5122C93.249 16.7401 93.7377 18.1316 93.8802 18.5819C94.0228 19.0321 94.5726 20.5874 95.102 22.0608C95.611 23.5138 96.955 27.3407 98.0749 30.5537C99.1948 33.7666 100.233 36.7135 100.376 37.1023C100.539 37.4912 100.783 38.1256 100.926 38.4939C101.211 39.292 101.638 39.7627 102.025 39.7627C102.331 39.7627 103.145 38.1256 103.145 37.5321C103.145 37.3479 103.267 37.0205 103.43 36.7954C103.573 36.5702 103.756 36.161 103.817 35.8745C103.939 35.2196 104.367 34.0531 104.632 33.521C104.754 33.2959 104.917 32.8457 104.998 32.4978C105.08 32.1704 105.487 30.9629 105.894 29.8374C106.301 28.7118 106.709 27.5658 106.81 27.2793C106.912 26.9928 107.584 25.0077 108.338 22.8794C109.091 20.7306 109.926 18.2749 110.231 17.3949C111.005 15.1233 111.229 15.2257 112.349 18.5205C112.858 20.0144 113.571 22.0199 113.917 22.9818C114.283 23.9436 114.793 25.3556 115.057 26.1538C115.322 26.9314 115.729 28.0979 115.974 28.7118C116.218 29.3258 116.625 30.4718 116.89 31.2699C117.175 32.0476 117.521 33.0708 117.684 33.521C119.008 37.1433 119.496 38.4939 119.578 38.9032C119.842 40.0288 121.085 39.8855 121.451 38.6781C121.553 38.3302 122.53 35.4447 123.609 32.2931C124.689 29.1416 125.931 25.4989 126.358 24.2096C126.806 22.9204 127.478 20.9353 127.886 19.8097C128.272 18.6842 128.965 16.6991 129.413 15.4099C129.861 14.1206 130.818 11.3374 131.53 9.20908C132.264 7.10122 133.078 4.87058 133.343 4.27711C134.055 2.74226 135.155 1.69857 136.54 1.28928C137.741 0.941379 138.128 0.4093 137.313 0.184189C136.703 0.0204722 127.417 0.0204722 126.806 0.184189C125.931 0.429764 126.379 0.961844 127.682 1.24835C129.27 1.59625 129.8 1.90322 130.309 2.78319C130.736 3.49945 130.736 3.51992 130.349 5.01383C129.963 6.56914 129.25 8.75886 127.682 13.2611C126.786 15.7987 125.462 19.6665 123.345 25.9491C122.042 29.7965 121.96 29.776 120.555 25.7445C119.985 24.0459 119.293 22.1222 119.048 21.4469C118.804 20.7716 118.376 19.5642 118.112 18.7865C117.847 17.9884 117.44 16.8424 117.195 16.2284C116.951 15.6145 116.666 14.8164 116.584 14.4889C116.401 13.875 116.198 13.2815 115.363 11.1123C115.118 10.4983 114.854 9.70023 114.752 9.37279C114.67 9.0249 114.507 8.53375 114.406 8.24724C113.734 6.58961 113.449 5.3208 113.449 4.01107C113.428 2.76273 113.489 2.47622 113.897 2.04647C114.365 1.53485 115.688 1.08463 116.666 1.08463C117.277 1.08463 117.521 0.757198 117.195 0.36837C116.971 0.102331 115.831 0.0614014 110.068 0.0614014C106.281 0.0614014 103.043 0.122795 102.86 0.184189C102.677 0.245583 102.534 0.429764 102.534 0.593481C102.534 0.920915 103.023 1.18695 103.96 1.37114C104.998 1.57578 106.2 2.49669 106.831 3.58131C107.157 4.13386 107.971 6.09846 108.643 7.96074L109.865 11.3783L109.172 13.4453C108.765 14.5708 107.89 17.1289 107.218 19.0935C106.525 21.0581 105.833 23.0431 105.69 23.4934C104.795 26.1538 103.715 29.0393 103.552 29.203C103.349 29.4076 103.267 29.2235 102.31 26.5631C102.005 25.6626 101.455 24.1482 101.089 23.1864C100.742 22.2246 100.193 20.6693 99.8872 19.7074C99.5614 18.7456 98.7876 16.4945 98.136 14.6936C94.8373 5.30034 94.4504 3.90875 94.7965 2.84459C95.102 1.92368 95.387 1.69857 96.8939 1.28928C98.2378 0.920915 98.645 0.4093 97.8102 0.184189C97.0771 7.57508e-06 85.1854 0.0614014 84.6764 0.266047ZM43.1369 51.5708C42.5871 51.9392 42.5056 52.8805 42.9943 53.3512C43.422 53.781 44.155 53.7605 44.5623 53.3103C45.4786 52.2871 44.2365 50.7931 43.1369 51.5708ZM60.7912 51.9801L59.264 52.6964L59.8341 52.9624C60.1599 53.0852 60.5061 53.3308 60.6079 53.4945C60.7097 53.6582 60.7912 56.8302 60.7912 60.5548C60.7912 67.0625 60.7708 67.349 60.3839 67.6969C59.5694 68.4336 59.8545 68.6178 61.8093 68.6178C63.7437 68.6178 63.9677 68.495 63.2958 67.7378C62.97 67.3899 62.9292 66.5918 62.8274 59.3474C62.7663 54.2926 62.6442 51.3457 62.522 51.3048C62.4202 51.2843 61.626 51.5708 60.7912 51.9801ZM113.367 51.9392C111.962 52.594 111.616 53.0647 112.512 53.0647C112.736 53.0647 113.001 53.2489 113.123 53.4535C113.245 53.7196 113.326 56.3186 113.326 60.4934C113.326 66.8169 113.306 67.1444 112.919 67.656C112.227 68.5155 112.369 68.6178 114.345 68.6178C116.299 68.6178 116.584 68.4336 115.77 67.6969C115.383 67.349 115.363 67.0216 115.322 59.3474C115.281 54.2312 115.179 51.3457 115.057 51.3048C114.955 51.2843 114.182 51.5708 113.367 51.9392ZM120.718 51.6117C119.822 52.3689 120.351 53.6787 121.532 53.6787C122.51 53.6787 122.876 52.1233 122.042 51.5503C121.471 51.141 121.268 51.141 120.718 51.6117ZM106.607 51.8368C106.098 52.062 105.528 52.2871 105.324 52.3689C104.856 52.5531 104.998 52.9419 105.568 53.0238C105.833 53.0647 106.098 53.3103 106.22 53.6173C106.342 53.9447 106.403 56.7688 106.362 60.7594C106.301 67.2876 106.301 67.3695 105.833 67.8402C105.589 68.1267 105.446 68.4132 105.528 68.4746C105.731 68.6997 109.213 68.6383 109.356 68.4336C109.417 68.3313 109.254 68.0857 109.01 67.9016L108.541 67.5946L108.439 59.552C108.338 51.7141 108.338 51.5299 107.93 51.4889C107.706 51.4685 107.116 51.6117 106.607 51.8368ZM0.416355 52.2257C0.355268 52.3485 0.558892 52.6554 0.86433 52.9419L1.43448 53.474L1.49557 60.2069L1.55666 66.9397L0.905055 67.6764C0.395992 68.2699 0.334905 68.4336 0.579255 68.536C0.762518 68.5974 2.85986 68.6178 5.24227 68.5769C9.98673 68.4746 10.5976 68.3518 12.3284 67.1444C13.652 66.2235 14.5276 65.1184 15.1588 63.6449C15.8919 61.885 15.9122 58.8971 15.1995 57.0962C14.4868 55.2954 13.2855 53.9447 11.7175 53.1466C10.5569 52.5531 10.0885 52.4508 7.78758 52.2666C4.57031 51.9801 0.579255 51.9801 0.416355 52.2257ZM9.33513 53.7605C10.6383 54.3949 11.4732 55.2749 12.2673 56.8097C12.756 57.792 12.8171 58.0785 12.8171 60.3297C12.8375 62.724 12.8171 62.8468 12.1655 64.1565C10.9234 66.7146 8.82607 67.9015 5.93459 67.7583C4.67212 67.6764 4.26487 67.5741 4.06124 67.2876C3.67435 66.7555 3.65399 54.1289 4.04088 53.6377C4.42777 53.1466 4.77393 53.0647 6.54547 53.1261C7.84867 53.1875 8.43918 53.3103 9.33513 53.7605ZM72.1942 52.328C72.1942 52.4917 72.3774 52.7578 72.5811 52.901C73.029 53.2284 73.5585 54.3131 74.434 56.8507C74.7802 57.8534 75.1875 59.0199 75.33 59.4087C75.4725 59.7976 75.7169 60.4524 75.8391 60.8413C76.2463 61.9873 77.0201 64.1156 77.4884 65.3435C77.7328 65.9574 77.9771 66.6532 78.0382 66.8783C78.0993 67.1034 78.3233 67.6969 78.5269 68.1676C78.8731 68.9043 78.9749 69.0271 79.2192 68.8225C79.3821 68.6792 79.6468 68.1471 79.8097 67.615C80.6242 64.9751 82.6198 59.5111 82.8234 59.3678C83.1696 59.1632 83.3528 59.3473 83.5768 60.0841C83.6786 60.4524 84.2284 62.0691 84.8189 63.7063C85.3891 65.3435 85.9999 67.083 86.1628 67.5946C86.3461 68.1062 86.6108 68.6383 86.7534 68.802C86.9773 69.0271 87.0588 69.0066 87.2828 68.5973C87.5475 68.0857 88.7896 64.6886 89.095 63.604C89.1765 63.2561 89.4616 62.4784 89.7059 61.8645C89.9299 61.2506 90.4797 59.6748 90.9277 58.3855C92.4752 53.8219 92.5567 53.6173 93.3101 52.901C93.5748 52.6554 93.7377 52.3485 93.6766 52.2461C93.5137 52.0006 90.5815 51.9801 90.439 52.2257C90.3779 52.3075 90.5611 52.6145 90.8259 52.8601C91.1109 53.1261 91.3349 53.474 91.3349 53.6582C91.3349 53.9652 91.0091 55.0498 90.663 55.9298C90.5611 56.2163 90.3982 56.7074 90.3168 57.0553C90.215 57.3827 89.9503 58.1809 89.7059 58.7948C89.4616 59.4087 89.1969 60.1864 89.095 60.5343C88.9525 61.0868 88.6674 61.8645 87.8937 63.7882C87.6086 64.5249 87.4253 64.3612 86.8959 62.7854C86.6515 62.1101 86.0407 60.3501 85.5112 58.8971C83.8415 54.1493 83.7397 53.5968 84.5135 52.8601C84.7986 52.594 85.0225 52.3075 85.0225 52.2052C85.0225 52.1233 83.8415 52.0415 82.3754 52.0415C80.9297 52.0415 79.7283 52.1029 79.7283 52.1643C79.7283 52.2257 80.1152 52.6759 80.6039 53.1261C81.2351 53.781 81.5813 54.354 81.9274 55.4386C82.4569 57.0349 82.4772 56.953 81.4591 59.818C80.3392 63.0514 79.8912 64.1361 79.6876 64.0747C79.5043 64.0133 78.5473 61.7212 78.1197 60.3297C78.0178 59.9818 77.5902 58.7948 77.183 57.6693C75.8187 53.8628 75.7576 53.5968 76.1852 52.9829C76.4092 52.6964 76.6943 52.4508 76.8368 52.4508C76.959 52.4508 77.0812 52.3689 77.0812 52.2871C77.0812 52.1847 75.9816 52.0824 74.6377 52.062C72.5811 52.021 72.1942 52.062 72.1942 52.328ZM152.219 55.1316C151.954 55.7047 151.302 56.5437 150.793 56.9939C149.938 57.7716 149.897 57.833 150.264 58.0581C151.425 58.7334 151.404 58.672 151.404 63.3175V67.6355L152.036 68.229C153.135 69.2522 154.54 68.9862 155.538 67.5741C156.189 66.6737 156.189 66.6532 155.294 67.1034C154.459 67.5127 153.685 67.3285 153.441 66.6532C153.176 65.9983 153.176 58.9995 153.42 58.6106C153.542 58.4264 153.99 58.2832 154.499 58.2627C154.988 58.2423 155.436 58.2218 155.538 58.2013C155.619 58.1809 155.68 57.9967 155.68 57.7716C155.68 57.4032 155.538 57.3623 154.581 57.3623C153.298 57.3623 153.237 57.2804 153.237 55.3977C153.237 53.781 152.931 53.6991 152.219 55.1316ZM20.5141 57.3623C18.539 57.833 17.2358 60.5752 18.8037 60.9845C19.5775 61.1687 19.944 60.8003 20.1069 59.7157C20.2902 58.406 20.8399 57.8739 21.9192 57.8944C22.9984 57.9353 23.6703 58.6925 23.7721 60.0227C23.8536 60.9641 23.4463 61.6598 22.8355 61.6598C22.6726 61.6598 22.2857 61.7826 21.9599 61.9464C21.6544 62.1101 20.9418 62.458 20.392 62.724C18.0299 63.87 17.134 65.5481 17.9688 67.3285C18.7833 69.068 21.2879 69.3341 22.8558 67.8197C23.4667 67.2467 23.6296 67.2671 24.1183 68.1062C24.6681 69.068 25.5437 69.0885 26.6433 68.1881C27.5188 67.4513 27.6207 67.1034 26.8672 67.2467C26.0731 67.3899 25.9102 66.7146 25.788 62.4375C25.6659 58.7948 25.6455 58.5902 25.1975 58.1195C24.4237 57.2804 22.2857 56.9325 20.5141 57.3623ZM23.8943 64.0133C23.9554 65.9574 23.7111 66.5304 22.6522 67.0625C21.4915 67.615 20.901 67.5537 20.2087 66.776C19.6996 66.203 19.6386 65.9779 19.72 65.2616C19.8422 64.3202 20.7789 63.3584 22.2042 62.6831C23.65 62.0077 23.8332 62.1305 23.8943 64.0133ZM30.5529 57.5055C30.1049 57.6693 29.5347 57.8534 29.27 57.9148C28.5573 58.0785 28.537 58.3446 29.2089 58.979L29.8402 59.5725V63.4812C29.8402 67.1444 29.8198 67.4104 29.4329 67.7378C28.6184 68.4336 28.9035 68.6178 30.8176 68.6178C31.8153 68.6178 32.6909 68.5564 32.752 68.495C32.8335 68.4132 32.6502 68.0857 32.3855 67.7583C31.8968 67.1648 31.8764 67.0625 31.8764 63.8905C31.8764 60.0431 31.9986 59.6339 33.424 58.9995C34.6457 58.4674 35.2159 58.4878 35.7453 59.0404C36.458 59.7976 36.6005 60.7594 36.5191 64.1361C36.4783 66.8374 36.3969 67.4104 36.1118 67.7378C35.4399 68.4746 35.6435 68.6178 37.4354 68.6178C38.3721 68.6178 39.1866 68.5564 39.268 68.495C39.3291 68.4132 39.1866 68.0857 38.9422 67.7583C38.535 67.2058 38.4942 66.8579 38.3924 63.1333C38.2906 58.9176 38.1888 58.4878 37.2928 57.7306C36.2747 56.8916 34.4625 57.0758 33.2203 58.1809C32.3651 58.9585 32.1004 58.9585 31.9579 58.1809C31.7746 57.2804 31.4895 57.1576 30.5529 57.5055ZM42.8722 57.6693C42.1595 57.9353 41.5282 58.2218 41.5079 58.3241C41.4672 58.4264 41.7115 58.7129 42.0577 58.9585L42.6685 59.4292V63.4812C42.6685 67.4309 42.6482 67.5537 42.2206 67.8402C41.4468 68.3518 41.9559 68.6178 43.7681 68.6178C44.6844 68.6178 45.5193 68.5564 45.5804 68.4746C45.6618 68.4132 45.5193 68.1267 45.2749 67.8402C44.827 67.3695 44.8066 67.2262 44.7455 62.3761C44.7048 58.7334 44.6233 57.3828 44.4401 57.3009C44.2975 57.26 43.6052 57.4237 42.8722 57.6693ZM51.8113 57.3418C50.4674 57.6283 49.2456 58.7334 48.5533 60.3297C47.9221 61.7417 47.9221 64.6272 48.5533 65.9983C50.0398 69.2727 53.8679 70.0299 56.0874 67.4923C56.8612 66.6123 57.411 65.4253 57.2074 65.1184C57.1259 64.9956 56.8205 65.2207 56.4743 65.63C55.6802 66.5918 54.9268 66.9806 53.7661 66.9806C51.7706 66.9806 50.0805 65.1593 49.9583 62.8468L49.8972 61.7622L53.6643 61.6598L57.4314 61.5575L57.3703 60.8617C57.2888 59.818 56.5354 58.5902 55.558 57.8944C54.6213 57.2395 53.2367 57.0348 51.8113 57.3418ZM53.4607 58.2832C54.8046 58.979 55.334 60.4729 54.3566 60.8413C53.7865 61.0664 50.8339 61.1278 50.3248 60.9231C49.714 60.6775 49.938 59.7157 50.8339 58.8153C51.7706 57.8944 52.4425 57.7511 53.4607 58.2832ZM97.7491 57.26C97.6473 57.3009 97.3011 57.3827 96.9957 57.4441C96.3034 57.6079 95.102 58.6311 94.4911 59.6134C93.025 61.9668 93.5341 66.4076 95.4481 67.8606C97.4844 69.4364 99.7243 69.3955 101.333 67.7788C101.985 67.1239 102.942 65.4867 102.942 65.016C102.942 64.7091 102.371 65.0774 101.516 65.9574C100.579 66.9193 100.457 66.9806 99.4799 66.9806C98.2378 66.9806 97.5455 66.6532 96.5884 65.5891C95.7536 64.6477 94.9798 62.1305 95.4481 61.844C95.5907 61.7417 97.3419 61.6598 99.317 61.6598C101.292 61.6598 102.962 61.578 103.023 61.4961C103.084 61.3938 102.982 60.8413 102.779 60.2478C102.371 58.9381 101.19 57.6693 100.132 57.3623C99.4188 57.1781 98.1767 57.1167 97.7491 57.26ZM99.3577 58.5083C100.213 59.1632 100.559 60.2887 100.05 60.8003C99.7039 61.1482 96.2016 61.1278 95.7332 60.7799C95.4074 60.5343 95.387 60.4524 95.6721 59.7976C96.1201 58.6925 97.179 57.9353 98.0953 58.0376C98.5025 58.099 99.0727 58.3037 99.3577 58.5083ZM120.413 57.7102C119.639 57.9967 119.028 58.3037 119.028 58.406C119.028 58.5083 119.252 58.7129 119.537 58.8357C120.331 59.2041 120.494 60.1455 120.413 63.9928C120.351 67.3081 120.331 67.4309 119.883 67.8197C119.618 68.0243 119.456 68.2904 119.537 68.4132C119.7 68.6997 123.039 68.6792 123.202 68.3927C123.284 68.2699 123.161 68.0448 122.917 67.8811C122.51 67.5741 122.49 67.4309 122.49 62.6831C122.49 58.5083 122.449 57.7511 122.164 57.4851C122.001 57.3009 121.838 57.1576 121.818 57.1781C121.797 57.1781 121.166 57.4237 120.413 57.7102ZM127.275 57.526C126.827 57.7306 126.216 57.9762 125.91 58.0581C125.238 58.2218 125.177 58.5083 125.748 58.6925C126.643 58.979 126.786 59.7771 126.725 63.7063C126.664 66.8374 126.623 67.4104 126.318 67.7378C125.625 68.495 125.849 68.6178 127.784 68.6178C129.25 68.6178 129.616 68.5564 129.616 68.3108C129.616 68.1471 129.433 67.922 129.209 67.7992C128.822 67.5946 128.802 67.3695 128.802 63.8291C128.802 59.6339 128.782 59.6953 130.472 58.9381C131.571 58.4264 132.141 58.4878 132.752 59.2041C133.404 60.0022 133.546 60.9845 133.445 64.484C133.383 67.1239 133.343 67.3899 132.915 67.8402C132.671 68.1267 132.528 68.4132 132.61 68.4746C132.671 68.5564 133.506 68.6178 134.422 68.6178C136.234 68.6178 136.682 68.3927 135.97 67.8197C135.583 67.5127 135.542 67.2262 135.46 63.604C135.399 60.6571 135.298 59.552 135.053 58.9995C134.055 56.7483 131.714 56.5642 129.677 58.5902C129.026 59.245 129.026 59.245 128.924 58.7539C128.863 58.4878 128.782 58.0581 128.761 57.7716C128.68 57.1372 128.293 57.0553 127.275 57.526ZM141.915 57.3418C140.327 57.6079 138.963 59.0608 138.678 60.7799C138.515 61.7622 138.983 63.0514 139.859 63.9928C140.47 64.6681 140.551 65.0979 140.103 65.2616C139.92 65.3435 139.553 65.7937 139.268 66.2849L138.739 67.1853L139.166 67.8811C139.411 68.2494 139.594 68.6587 139.594 68.7611C139.594 68.8634 139.268 69.3136 138.881 69.7638C138.494 70.1936 138.067 70.8689 137.945 71.2373C137.639 72.1582 138.026 72.7107 139.533 73.427C140.571 73.9386 140.938 74 142.648 74C145.581 73.9795 147.515 72.9972 148.513 71.0122C149.124 69.7843 148.981 68.8429 148.024 68.0243C147.25 67.3285 146.904 67.2467 143.687 67.083C141.101 66.9397 140.612 66.776 140.612 66.0802C140.612 65.2616 141.243 64.8933 142.363 65.0365C143.829 65.2412 145.438 64.7091 146.354 63.7472C147.271 62.8059 147.535 61.8645 147.311 60.432C147.108 59.1427 147.169 58.9995 147.922 58.9995C148.615 58.9995 149.144 58.4878 148.798 58.1399C148.676 58.0171 148.106 57.9353 147.515 57.9558C146.925 57.9558 145.866 57.792 145.133 57.5669C143.789 57.1372 143.341 57.1167 141.915 57.3418ZM143.524 57.8125C144.583 58.3651 145.296 59.859 145.296 61.4757C145.296 62.9287 144.909 63.7268 143.911 64.3612C143.239 64.7705 143.219 64.7705 142.526 64.4021C141.325 63.7472 140.938 62.8673 140.938 60.7594L140.918 58.9585L141.712 58.2627C142.587 57.5055 142.852 57.4441 143.524 57.8125ZM144.97 69.0066C146.965 69.1499 147.23 69.2113 147.576 69.641C149.022 71.4419 145.194 73.2837 141.834 72.4242C140.103 71.974 139.492 71.401 139.675 70.3778C139.757 69.9685 140.022 69.4569 140.246 69.2318C140.734 68.7815 141.304 68.7406 144.97 69.0066ZM161.199 57.3009C158.755 57.7716 156.658 61.5575 157.309 64.3407C157.635 65.7732 158.165 66.776 158.959 67.5741C159.875 68.5155 160.69 68.8634 162.135 68.9862C163.276 69.068 163.561 69.0066 164.701 68.4541C166.106 67.7378 166.798 66.8988 167.47 65.1184C168.346 62.8263 167.857 60.432 166.167 58.6925C164.864 57.3418 163.316 56.9121 161.199 57.3009ZM163.459 58.3446C164.905 59.3064 165.454 60.8208 165.454 63.8086C165.454 65.6709 165.393 66.1621 165.047 66.7146C163.663 69.0066 161.097 68.2699 159.997 65.2821C159.488 63.9314 159.386 61.3324 159.794 59.9817C160.303 58.2832 162.135 57.4646 163.459 58.3446ZM171.258 57.6897C170.484 57.9558 169.832 58.1809 169.792 58.1809C169.751 58.1809 169.731 58.2832 169.731 58.3855C169.731 58.5083 169.955 58.6925 170.24 58.7948C171.054 59.1018 171.176 59.818 171.115 63.7268C171.054 66.8374 170.993 67.4104 170.708 67.7378C170.016 68.495 170.24 68.6178 172.174 68.6178C174.088 68.6178 174.292 68.495 173.599 67.7992C173.233 67.4309 173.192 67.1239 173.192 63.8496C173.192 59.8385 173.233 59.6748 174.719 58.9995C175.88 58.4674 176.308 58.4878 177 59.0813L177.57 59.5725L177.631 63.5426C177.692 67.3695 177.692 67.4923 177.265 67.8402C177.02 68.0448 176.878 68.2904 176.959 68.4132C177.102 68.6383 180.36 68.6997 180.584 68.4746C180.665 68.4132 180.523 68.1267 180.278 67.8402C179.83 67.3899 179.81 67.1648 179.708 63.3379C179.627 60.4934 179.525 59.1632 179.321 58.7948C178.262 56.8507 176.348 56.6051 174.556 58.2013C173.681 58.979 173.62 58.9995 173.416 58.6106C173.294 58.3855 173.192 58.0376 173.192 57.8125C173.192 57.1781 172.765 57.1576 171.258 57.6897Z" fill="white"/>
</g>
<defs>
<clipPath id="clip0_96_7564">
<rect width="181" height="74" fill="white"/>
</clipPath>
</defs>
</svg>
