<svg width="100" height="100" viewBox="0 0 100 100" fill="none" xmlns="http://www.w3.org/2000/svg">
<path d="M0 0H99.6057V99.6057H0V0Z" fill="white" fill-opacity="0.01"/>
<path d="M49.8029 91.3052C61.2633 91.3052 71.6389 86.6599 79.1494 79.1494C86.6599 71.6389 91.3052 61.2633 91.3052 49.8029C91.3052 38.3424 86.6599 27.9668 79.1494 20.4562C71.6389 12.9458 61.2633 8.30048 49.8029 8.30048C38.3424 8.30048 27.9668 12.9458 20.4562 20.4562C12.9458 27.9668 8.30048 38.3424 8.30048 49.8029C8.30048 61.2633 12.9458 71.6389 20.4562 79.1494C27.9668 86.6599 38.3424 91.3052 49.8029 91.3052Z" fill="#2F88FF" stroke="black" stroke-width="8.30048" stroke-linejoin="round"/>
<path d="M33.2019 49.8029L45.6526 62.2536L70.554 37.3521" stroke="white" stroke-width="8.30048" stroke-linecap="round" stroke-linejoin="round"/>
</svg>
