<svg width="500" height="50" viewBox="0 0 382 30" fill="none" xmlns="http://www.w3.org/2000/svg">
<g clip-path="url(#clip0_77_7562)">
<path d="M21.213 11.0546C21.213 12.4517 20.8457 13.056 19.606 13.056H9.6473V4.02093H19.6049C20.798 4.02093 21.212 4.62733 21.212 5.93014L21.213 11.0546ZM30.9007 29.9914C29.6621 28.7133 29.1561 27.5969 28.6056 26.1537L25.0242 16.988C28.1006 16.5701 29.5689 14.9523 29.5689 12.0778V5.74587C29.5689 2.49634 27.7332 0.229278 23.8755 0.229278H0.486816C0.762065 1.24817 1.03731 2.17278 1.03731 4.022V26.1537C1.03731 28.0136 0.762065 28.9447 0.486816 29.9914H10.1978C9.92255 28.9447 9.6473 28.0147 9.6473 26.1537V16.8487H16.0733L21.1209 29.9914H30.9007ZM35.4741 29.9914C35.7493 28.9458 36.0246 28.0158 36.0246 26.158V4.04128C36.0246 2.18242 35.7493 1.25353 35.4741 0.229278H45.184C44.9087 1.25246 44.6335 2.18242 44.6335 4.04128V26.158C44.6335 28.0147 44.9087 28.9458 45.184 29.9914H35.4741ZM74.0194 29.9979H56.8535C52.9153 29.9979 51.0838 27.7779 51.0838 24.1556V6.07264C51.0838 2.45027 52.9153 0.229278 56.8535 0.229278H74.0184L74.7531 4.72055C73.6045 4.25449 72.4114 4.02093 70.5746 4.02093H61.2522C60.2888 4.02093 59.6917 4.39591 59.6917 5.60659V24.6216C59.6917 25.8323 60.2877 26.2073 61.2522 26.2073H70.5736C72.4103 26.2073 73.6034 25.9726 74.752 25.5066L74.0194 29.9979ZM100.21 29.9914C100.487 28.9447 100.762 28.0147 100.762 26.1537V16.8487H89.1242V26.1537C89.1242 28.0136 89.4005 28.9447 89.6769 29.9914H79.9638C80.239 28.9447 80.5143 28.0147 80.5143 26.1537V4.04128C80.5143 2.18242 80.239 1.25353 79.9638 0.229278H89.6769C89.4016 1.25353 89.1242 2.18242 89.1242 4.04128V13.056H100.761V4.04128C100.761 2.18242 100.486 1.25353 100.209 0.229278H109.921C109.646 1.25353 109.371 2.18242 109.371 4.04128V26.1537C109.371 28.0136 109.646 28.9447 109.921 29.9914H100.21ZM134.183 17.7347H124.266L129.178 6.46798L134.183 17.7347ZM149.428 29.9914C148.601 29.2286 147.774 27.554 147.132 26.1644L135.47 0.229278H125.873L127.113 2.18671L116.46 26.1644C116 27.2305 115.081 28.7143 114.209 29.9914H119.857C119.857 28.5279 120.179 27.0451 120.545 26.1644L122.52 21.5274H135.88L137.902 26.1644C138.406 27.3215 138.682 28.4818 138.682 29.2286C138.682 29.5147 138.682 29.7043 138.591 29.9914H149.428ZM174.428 11.0546C174.428 12.4517 174.062 13.056 172.821 13.056H162.863V4.02093H172.821C174.015 4.02093 174.428 4.62733 174.428 5.93014V11.0546ZM184.117 29.9914C182.876 28.7133 182.372 27.5969 181.819 26.1537L178.238 16.988C181.314 16.5701 182.784 14.9523 182.784 12.0778V5.74587C182.784 2.49634 180.947 0.229278 177.09 0.229278H153.703C153.978 1.24817 154.253 2.17278 154.253 4.022V26.1537C154.253 28.0136 153.978 28.9447 153.703 29.9914H163.414C163.139 28.9447 162.863 28.0147 162.863 26.1537V16.8487H169.287L174.336 29.9914H184.117ZM209.728 24.6195C209.728 25.8334 209.127 26.2062 208.161 26.2062H197.85V4.022L208.161 3.977C209.127 3.977 209.728 4.34984 209.728 5.56266V24.6195ZM218.336 24.1513V6.03193C218.336 2.42348 216.505 0.230349 212.567 0.230349H188.69C188.965 1.23638 189.241 2.15028 189.241 3.977V26.2083C189.241 28.0576 188.965 28.9811 188.69 30H212.566C216.504 29.9989 218.335 27.7801 218.335 24.1524L218.336 24.1513ZM265.449 29.7611C265.724 28.7154 266 27.7865 266 25.9276V4.27485H265.908L255.851 29.76H249.883L240.011 4.27485H239.919V25.9276C239.919 27.7854 240.195 28.7154 240.473 29.7611H235.398C235.674 28.7154 235.951 27.7865 235.951 25.9276V3.81201C235.951 1.95314 235.674 1.02318 235.398 0.00107139H246.991L255.393 21.6078L263.936 0H274.91C274.632 1.02211 274.358 1.95207 274.358 3.80986V25.9276C274.358 27.7854 274.633 28.7154 274.909 29.7611H265.449ZM281.811 29.7611C282.085 28.7154 282.361 27.7865 282.361 25.9276V3.81201C282.361 1.95314 282.085 1.02318 281.811 0H291.52C291.243 1.02211 290.969 1.95314 290.969 3.81201V25.9276C290.969 27.7854 291.243 28.7154 291.52 29.7611H281.811ZM322.56 29.7675H298.476C298.753 28.7508 299.03 27.8251 299.03 25.9748V3.81951C299.03 1.95743 298.753 1.02639 298.476 0.00107139H308.189C307.912 1.02639 307.636 1.95743 307.636 3.81951V25.978H318.978C320.953 25.978 322.192 25.6994 323.295 25.2795L322.56 29.7675ZM351.671 29.7675H327.587C327.863 28.7508 328.137 27.8251 328.137 25.9748V3.81951C328.137 1.95743 327.863 1.02639 327.587 0.00107139H337.297C337.021 1.02639 336.746 1.95743 336.746 3.81951V25.978H348.088C350.064 25.978 351.302 25.6994 352.405 25.2795L351.671 29.7675ZM380.779 29.7675H356.698C356.972 28.7508 357.248 27.8251 357.248 25.9748V3.79272C357.248 1.94243 356.972 1.01782 356.698 0H380.779L381.513 4.4902C380.412 4.07128 379.172 3.79058 377.198 3.79058H365.856V12.8267H376.002C377.611 12.8267 379.078 12.5481 380.089 12.1281V17.3201C379.078 16.899 377.612 16.6173 376.002 16.6173H365.856V25.9759H377.198C379.172 25.9759 380.412 25.6941 381.513 25.273L380.779 29.7675Z" fill="white"/>
</g>
<defs>
<clipPath id="clip0_77_7562">
<rect width="500" height="50" fill="white"/>
</clipPath>
</defs>
</svg>
