<svg width="45" height="45" viewBox="0 0 45 45" fill="none" xmlns="http://www.w3.org/2000/svg">
<g clip-path="url(#clip0_47_7565)">
<path d="M22.5 45C34.9264 45 45 34.9264 45 22.5C45 10.0736 34.9264 0 22.5 0C10.0736 0 0 10.0736 0 22.5C0 34.9264 10.0736 45 22.5 45Z" fill="#18122B"/>
<g filter="url(#filter0_d_47_7565)">
<path d="M21.75 28.2C26.7206 28.2 30.75 24.1706 30.75 19.2C30.75 14.2294 26.7206 10.2 21.75 10.2C16.7794 10.2 12.75 14.2294 12.75 19.2C12.75 24.1706 16.7794 28.2 21.75 28.2Z" fill="#D9D9D9"/>
</g>
<path d="M11.2501 24.975L7.3501 30.975L23.9251 34.2L36.3001 25.95L34.5001 16.35" stroke="white"/>
<path d="M7.39389 31.2323C7.5699 31.2323 7.71259 31.0896 7.71259 30.9136C7.71259 30.7376 7.5699 30.5949 7.39389 30.5949C7.21788 30.5949 7.0752 30.7376 7.0752 30.9136C7.0752 31.0896 7.21788 31.2323 7.39389 31.2323Z" fill="white"/>
<path d="M11.2181 25.3045C11.3941 25.3045 11.5368 25.1619 11.5368 24.9858C11.5368 24.8098 11.3941 24.6671 11.2181 24.6671C11.0421 24.6671 10.8994 24.8098 10.8994 24.9858C10.8994 25.1619 11.0421 25.3045 11.2181 25.3045Z" fill="white"/>
<path d="M34.4828 16.6997C34.6588 16.6997 34.8015 16.557 34.8015 16.381C34.8015 16.205 34.6588 16.0623 34.4828 16.0623C34.3067 16.0623 34.1641 16.205 34.1641 16.381C34.1641 16.557 34.3067 16.6997 34.4828 16.6997Z" fill="white"/>
<path d="M23.8387 34.5468C24.0147 34.5468 24.1574 34.4041 24.1574 34.2281C24.1574 34.052 24.0147 33.9094 23.8387 33.9094C23.6627 33.9094 23.52 34.052 23.52 34.2281C23.52 34.4041 23.6627 34.5468 23.8387 34.5468Z" fill="white"/>
<path d="M36.3187 26.1374C36.4947 26.1374 36.6374 25.9947 36.6374 25.8187C36.6374 25.6427 36.4947 25.5 36.3187 25.5C36.1427 25.5 36 25.6427 36 25.8187C36 25.9947 36.1427 26.1374 36.3187 26.1374Z" fill="white"/>
<path d="M39.375 19.2L39.5939 19.8737H40.3023L39.7292 20.2901L39.9481 20.9638L39.375 20.5474L38.802 20.9638L39.0208 20.2901L38.4478 19.8737H39.1562L39.375 19.2Z" fill="white" fill-opacity="0.1"/>
<path d="M4.41703 20.5241L4.63593 21.1978H5.34431L4.77121 21.6141L4.99011 22.2879L4.41703 21.8715L3.84393 22.2879L4.06283 21.6141L3.48975 21.1978H4.19813L4.41703 20.5241Z" fill="white" fill-opacity="0.1"/>
<path d="M29.7217 35.8215L29.9406 36.4953H30.649L30.0759 36.9116L30.2948 37.5853L29.7217 37.1689L29.1486 37.5853L29.3675 36.9116L28.7944 36.4953H29.5028L29.7217 35.8215Z" fill="white" fill-opacity="0.5"/>
<path d="M29.7749 6L29.9938 6.6737H30.7022L30.1291 7.09011L30.348 7.76377L29.7749 7.34743L29.2019 7.76377L29.4207 7.09011L28.8477 6.6737H29.556L29.7749 6Z" fill="white" fill-opacity="0.1"/>
<path d="M10.4248 6.89999L10.6437 7.57372H11.3521L10.779 7.99013L10.9979 8.66379L10.4248 8.24744L9.85176 8.66379L10.0706 7.99013L9.49756 7.57372H10.2059L10.4248 6.89999Z" fill="white" fill-opacity="0.2"/>
</g>
<defs>
<filter id="filter0_d_47_7565" x="-87.25" y="-85.8" width="218" height="218" filterUnits="userSpaceOnUse" color-interpolation-filters="sRGB">
<feFlood flood-opacity="0" result="BackgroundImageFix"/>
<feColorMatrix in="SourceAlpha" type="matrix" values="0 0 0 0 0 0 0 0 0 0 0 0 0 0 0 0 0 0 127 0" result="hardAlpha"/>
<feOffset dy="4"/>
<feGaussianBlur stdDeviation="50"/>
<feComposite in2="hardAlpha" operator="out"/>
<feColorMatrix type="matrix" values="0 0 0 0 1 0 0 0 0 1 0 0 0 0 1 0 0 0 0.25 0"/>
<feBlend mode="normal" in2="BackgroundImageFix" result="effect1_dropShadow_47_7565"/>
<feBlend mode="normal" in="SourceGraphic" in2="effect1_dropShadow_47_7565" result="shape"/>
</filter>
<clipPath id="clip0_47_7565">
<rect width="45" height="45" fill="white"/>
</clipPath>
</defs>
</svg>
